<svg width="36" height="36" viewBox="0 0 36 36" fill="none" xmlns="http://www.w3.org/2000/svg">
<path d="M7.5 22.5V21H6V18H7.5V16.5H10.5V22.5H7.5ZM28.5 18V16.5H25.5V22.5H28.5V21H30V18H28.5ZM27 9H23.79C23.25 6.9 21.6 5.25 19.5 4.71V3H16.5V4.71C14.4 5.25 12.75 6.9 12.21 9H9V12H27V9ZM27 33H9C9 31.35 10.35 30 12 30V13.5H24V30C24.7956 30 25.5587 30.3161 26.1213 30.8787C26.6839 31.4413 27 32.2044 27 33ZM15 19.5C15 20.2957 15.3161 21.0587 15.8787 21.6213C16.4413 22.1839 17.2043 22.5 18 22.5C18.7956 22.5 19.5587 22.1839 20.1213 21.6213C20.6839 21.0587 21 20.2957 21 19.5C21 17.835 19.665 16.5 18 16.5C16.335 16.5 15 17.85 15 19.5Z" fill="#8F8E8E"/>
</svg>
