<svg width="36" height="36" viewBox="0 0 36 36" fill="none" xmlns="http://www.w3.org/2000/svg">
<path d="M33 10.5H30V19.5H33V10.5ZM33 22.5H30V25.5H33V22.5ZM4.5 22.5V21H3V18H4.5V16.5H7.5V22.5H4.5ZM25.5 18V16.5H22.5V22.5H25.5V21H27V18H25.5ZM24 9H20.79C20.25 6.9 18.6 5.25 16.5 4.71V3H13.5V4.71C11.4 5.25 9.75 6.9 9.21 9H6V12H24V9ZM24 33H6C6 32.2043 6.31607 31.4413 6.87868 30.8787C7.44129 30.3161 8.20435 30 9 30V13.5H21V30C21.7956 30 22.5587 30.3161 23.1213 30.8787C23.6839 31.4413 24 32.2043 24 33ZM12 19.5C12 20.2956 12.3161 21.0587 12.8787 21.6213C13.4413 22.1839 14.2043 22.5 15 22.5C15.7956 22.5 16.5587 22.1839 17.1213 21.6213C17.6839 21.0587 18 20.2956 18 19.5C18 17.835 16.665 16.5 15 16.5C13.335 16.5 12 17.85 12 19.5Z" fill="black"/>
</svg>
