<svg width="60" height="60" viewBox="0 0 60 60" fill="none" xmlns="http://www.w3.org/2000/svg">
<path fill-rule="evenodd" clip-rule="evenodd" d="M30 2.5C14.8125 2.5 2.5 14.8125 2.5 30C2.5 45.1875 14.8125 57.5 30 57.5C45.1875 57.5 57.5 45.1875 57.5 30C57.5 14.8125 45.1875 2.5 30 2.5ZM32.5 17.5C32.5 16.837 32.2366 16.2011 31.7678 15.7322C31.2989 15.2634 30.663 15 30 15C29.337 15 28.7011 15.2634 28.2322 15.7322C27.7634 16.2011 27.5 16.837 27.5 17.5V32.5C27.5 33.163 27.7634 33.7989 28.2322 34.2678C28.7011 34.7366 29.337 35 30 35C30.663 35 31.2989 34.7366 31.7678 34.2678C32.2366 33.7989 32.5 33.163 32.5 32.5V17.5ZM32.5 41.25C32.5 40.587 32.2366 39.9511 31.7678 39.4822C31.2989 39.0134 30.663 38.75 30 38.75C29.337 38.75 28.7011 39.0134 28.2322 39.4822C27.7634 39.9511 27.5 40.587 27.5 41.25V42.5C27.5 43.163 27.7634 43.7989 28.2322 44.2678C28.7011 44.7366 29.337 45 30 45C30.663 45 31.2989 44.7366 31.7678 44.2678C32.2366 43.7989 32.5 43.163 32.5 42.5V41.25Z" fill="#F24E1E"/>
</svg>
