<svg width="340" height="258" viewBox="0 0 340 258" fill="none" xmlns="http://www.w3.org/2000/svg">
<rect width="340" height="258" fill="white"/>
<rect x="151" y="224" width="39" height="19" rx="2" fill="#040404"/>
<path d="M162.004 233.372V234.996H163.166V233.372H162.004ZM167.338 227.45V235.934H168.5V227.45H167.338ZM168.01 231.272V232.238H170.348V231.272H168.01ZM158.77 235.57C160.982 235.556 163.978 235.542 166.68 235.066L166.582 234.24C163.964 234.618 160.884 234.618 158.616 234.618L158.77 235.57ZM160.184 236.564V237.488H167.338V240.092H168.5V236.564H160.184ZM158.938 228.584V229.452H166.204V228.584H158.938ZM162.578 229.942C160.786 229.942 159.624 230.656 159.624 231.818C159.624 232.98 160.786 233.694 162.578 233.694C164.356 233.694 165.518 232.98 165.518 231.818C165.518 230.656 164.356 229.942 162.578 229.942ZM162.578 230.74C163.698 230.74 164.426 231.146 164.426 231.818C164.426 232.462 163.698 232.882 162.578 232.882C161.444 232.882 160.716 232.462 160.716 231.818C160.716 231.146 161.444 230.74 162.578 230.74ZM162.004 227.338V229.004H163.166V227.338H162.004ZM180.777 227.45V236.69H181.953V227.45H180.777ZM173.819 238.86V239.812H182.331V238.86H173.819ZM173.819 235.738V239.182H174.967V235.738H173.819ZM175.163 228.318C173.273 228.318 171.859 229.606 171.859 231.44C171.859 233.26 173.273 234.562 175.163 234.562C177.053 234.562 178.453 233.26 178.453 231.44C178.453 229.606 177.053 228.318 175.163 228.318ZM175.163 229.326C176.395 229.326 177.333 230.194 177.333 231.44C177.333 232.672 176.395 233.54 175.163 233.54C173.931 233.54 172.993 232.672 172.993 231.44C172.993 230.194 173.931 229.326 175.163 229.326Z" fill="#F0F2F8"/>
<path fill-rule="evenodd" clip-rule="evenodd" d="M170 42.5C154.812 42.5 142.5 54.8125 142.5 70C142.5 85.1875 154.812 97.5 170 97.5C185.188 97.5 197.5 85.1875 197.5 70C197.5 54.8125 185.188 42.5 170 42.5ZM172.5 57.5C172.5 56.837 172.237 56.2011 171.768 55.7322C171.299 55.2634 170.663 55 170 55C169.337 55 168.701 55.2634 168.232 55.7322C167.763 56.2011 167.5 56.837 167.5 57.5V72.5C167.5 73.163 167.763 73.7989 168.232 74.2678C168.701 74.7366 169.337 75 170 75C170.663 75 171.299 74.7366 171.768 74.2678C172.237 73.7989 172.5 73.163 172.5 72.5V57.5ZM172.5 81.25C172.5 80.587 172.237 79.9511 171.768 79.4822C171.299 79.0134 170.663 78.75 170 78.75C169.337 78.75 168.701 79.0134 168.232 79.4822C167.763 79.9511 167.5 80.587 167.5 81.25V82.5C167.5 83.163 167.763 83.7989 168.232 84.2678C168.701 84.7366 169.337 85 170 85C170.663 85 171.299 84.7366 171.768 84.2678C172.237 83.7989 172.5 83.163 172.5 82.5V81.25Z" fill="#F24E1E"/>
<path d="M71.656 170.728V172.936H72.968V170.728H71.656ZM67.528 164.008V168.776H77.16V164.008H75.832V165.352H68.84V164.008H67.528ZM68.84 166.376H75.832V167.752H68.84V166.376ZM65.784 169.96V171.032H78.856V169.96H65.784ZM67.368 172.44V173.448H75.88V174.696H67.4V177.448H68.712V175.656H77.192V172.44H67.368ZM67.4 177.064V178.088H77.624V177.064H67.4ZM81.2228 164.52V171.144H87.7508V164.52H86.4548V166.744H82.5348V164.52H81.2228ZM82.5348 167.784H86.4548V170.056H82.5348V167.784ZM87.3828 167.336V168.424H91.4788V167.336H87.3828ZM91.0788 163.784V171.688H92.4068V163.784H91.0788ZM83.1428 172.392V178.056H92.4068V172.392H91.0948V174.136H84.4548V172.392H83.1428ZM84.4548 175.192H91.0948V176.968H84.4548V175.192ZM105.53 165.208V165.816C105.53 167.72 103.049 169.384 100.506 169.752L101.018 170.808C103.93 170.312 106.682 168.408 106.682 165.816V165.208H105.53ZM105.866 165.208V165.816C105.866 168.408 108.602 170.312 111.53 170.808L112.026 169.752C109.498 169.384 107.002 167.72 107.002 165.816V165.208H105.866ZM105.578 172.728V178.248H106.89V172.728H105.578ZM99.7375 172.024V173.112H112.81V172.024H99.7375ZM100.954 164.68V165.752H111.546V164.68H100.954ZM120.104 171.096C120.104 171.64 120.552 172.136 121.128 172.136C121.72 172.136 122.136 171.64 122.136 171.096C122.136 170.584 121.72 170.056 121.128 170.056C120.552 170.056 120.104 170.584 120.104 171.096ZM136.887 167.528V168.632H140.151V167.528H136.887ZM139.735 163.784V172.408H141.063V163.784H139.735ZM136.311 172.84C133.319 172.84 131.479 173.848 131.479 175.544C131.479 177.256 133.319 178.232 136.311 178.232C139.287 178.232 141.127 177.256 141.127 175.544C141.127 173.848 139.287 172.84 136.311 172.84ZM136.311 173.88C138.487 173.88 139.815 174.488 139.815 175.544C139.815 176.584 138.487 177.192 136.311 177.192C134.135 177.192 132.807 176.584 132.807 175.544C132.807 174.488 134.135 173.88 136.311 173.88ZM132.855 165.24V166.408C132.855 168.488 131.367 170.424 129.223 171.208L129.911 172.264C132.311 171.368 133.943 169.08 133.943 166.408V165.24H132.855ZM133.111 165.24V166.408C133.111 168.84 134.663 171.016 137.015 171.864L137.687 170.808C135.591 170.072 134.183 168.28 134.183 166.408V165.24H133.111ZM129.623 164.84V165.928H137.351V164.84H129.623ZM147.414 167.224V168.456C147.414 170.952 145.878 173.416 143.75 174.44L144.502 175.464C146.79 174.328 148.454 171.512 148.454 168.456V167.224H147.414ZM147.67 167.224V168.456C147.67 171.336 149.238 174.072 151.494 175.192L152.23 174.168C150.166 173.144 148.71 170.792 148.71 168.456V167.224H147.67ZM144.15 166.296V167.368H151.91V166.296H144.15ZM147.398 164.04V166.888H148.71V164.04H147.398ZM153.67 163.784V178.248H155.014V163.784H153.67ZM154.694 169.72V170.824H157.382V169.72H154.694ZM168.389 163.768V178.248H169.733V163.768H168.389ZM169.365 169.64V170.744H172.037V169.64H169.365ZM164.693 165.336V165.544C164.693 169.368 162.693 172.456 158.693 174.488L159.429 175.512C164.101 173.16 165.989 169.448 165.989 165.336H164.693ZM159.365 165.336V166.424H165.381V165.336H159.365ZM187.719 163.784V171.976H189.047V163.784H187.719ZM188.679 167.304V168.408H191.191V167.304H188.679ZM183.719 164.712V165.304C183.719 167.96 181.559 170.056 177.815 171.08L178.327 172.136C182.583 170.984 185.127 168.36 185.127 164.712H183.719ZM178.439 164.712V165.784H184.455V164.712H178.439ZM179.943 172.664V178.056H189.047V172.664H179.943ZM187.735 173.736V176.968H181.255V173.736H187.735ZM196.374 165.848V168.2C196.374 170.696 194.63 173.416 192.534 174.408L193.302 175.464C195.606 174.328 197.446 171.256 197.446 168.2V165.848H196.374ZM196.63 165.848V168.2C196.63 171.208 198.486 174.024 200.822 175.112L201.574 174.056C199.446 173.144 197.702 170.648 197.702 168.2V165.848H196.63ZM193.014 165.256V166.376H201.094V165.256H193.014ZM203.046 163.784V178.248H204.374V163.784H203.046ZM208.405 170.008V171.096H215.813V170.008H208.405ZM211.365 170.872V174.2H212.709V170.872H211.365ZM208.405 165.144V170.392H209.733V166.232H215.733V165.144H208.405ZM217.717 163.768V178.264H219.045V163.768H217.717ZM207.525 175.128C210.261 175.144 213.717 175.08 216.885 174.6L216.773 173.608C213.717 173.976 210.165 174.008 207.333 174.024L207.525 175.128ZM225.668 172.6V173.432C225.668 174.84 224.596 176.408 222.772 177.08L223.444 178.072C225.524 177.272 226.708 175.352 226.708 173.432V172.6H225.668ZM225.972 172.6V173.432C225.972 175.368 226.9 177.384 228.996 178.2L229.556 177.192C227.812 176.488 226.964 174.904 226.964 173.432V172.6H225.972ZM231.028 172.6V173.432C231.028 174.696 230.148 176.392 228.42 177.192L228.996 178.2C231.06 177.32 232.004 175.144 232.004 173.432V172.6H231.028ZM231.284 172.6V173.432C231.284 175.448 232.452 177.304 234.548 178.072L235.236 177.08C233.38 176.456 232.324 174.952 232.324 173.432V172.6H231.284ZM229.092 167.4V168.504H232.916V167.4H229.092ZM225.924 164.6C223.796 164.6 222.228 165.992 222.228 167.992C222.228 169.976 223.796 171.368 225.924 171.368C228.052 171.368 229.635 169.976 229.635 167.992C229.635 165.992 228.052 164.6 225.924 164.6ZM225.924 165.704C227.316 165.704 228.356 166.664 228.356 167.992C228.356 169.32 227.316 170.264 225.924 170.264C224.516 170.264 223.492 169.32 223.492 167.992C223.492 166.664 224.516 165.704 225.924 165.704ZM232.548 163.784V172.024H233.876V163.784H232.548ZM238.354 172.456V178.056H248.066V172.456H246.738V174.136H239.666V172.456H238.354ZM239.666 175.16H246.738V176.984H239.666V175.16ZM236.69 170.376V171.448H249.762V170.376H236.69ZM242.562 163.944V164.584C242.562 166.408 240.05 167.96 237.442 168.312L237.922 169.352C240.898 168.904 243.698 167.096 243.698 164.584V163.944H242.562ZM242.77 163.944V164.584C242.77 167.064 245.586 168.904 248.53 169.352L249.026 168.312C246.45 167.96 243.906 166.376 243.906 164.584V163.944H242.77ZM261.937 163.784V178.248H263.265V163.784H261.937ZM252.337 165.192V174.152H253.649V165.192H252.337ZM252.337 173.368V174.52H253.521C255.809 174.52 258.097 174.344 260.609 173.832L260.449 172.696C258.001 173.208 255.713 173.368 253.521 173.368H252.337ZM275.92 163.768V178.264H277.264V163.768H275.92ZM276.944 169.48V170.6H279.632V169.48H276.944ZM266.752 173.544V174.664H267.888C270.608 174.664 272.512 174.584 274.736 174.168L274.592 173.048C272.432 173.448 270.56 173.544 267.888 173.544H266.752ZM266.752 165.176V174.04H268.064V166.264H273.472V165.176H266.752ZM282.267 177.091C281.987 177.091 281.746 176.991 281.545 176.79C281.345 176.589 281.244 176.348 281.244 176.068C281.244 175.788 281.345 175.547 281.545 175.347C281.746 175.146 281.987 175.045 282.267 175.045C282.547 175.045 282.788 175.146 282.989 175.347C283.189 175.547 283.29 175.788 283.29 176.068C283.29 176.254 283.242 176.424 283.148 176.58C283.057 176.735 282.934 176.86 282.778 176.955C282.627 177.045 282.456 177.091 282.267 177.091Z" fill="black"/>
</svg>
